# Blender v2.93.3 OBJ File: ''
# www.blender.org
mtllib interior_decor_flower_pot.mtl
o Object_4_Object_0
v 5.656854 15.000005 -5.656853
v -5.656854 15.000005 5.656857
v 5.657561 15.000005 -5.656146
v -5.656147 15.000005 5.657564
v -5.656854 0.000002 5.656857
v 5.656854 0.000002 -5.656853
v -5.656147 0.000002 5.657564
v 5.657561 0.000002 -5.656146
v -5.656854 15.000005 5.656857
v -5.656854 0.000002 5.656857
v -5.656147 15.000005 5.657564
v -5.656147 0.000002 5.657564
v 5.657561 15.000005 -5.656146
v 5.657561 0.000002 -5.656146
v 5.656854 15.000005 -5.656853
v 5.656854 0.000002 -5.656853
vt 0.562500 0.250000
vt 0.562500 0.250000
vt 0.562500 0.250000
vt 0.562500 0.250000
vt 0.562500 0.250000
vt 0.562500 0.250000
vt 0.562500 0.250000
vt 0.562500 0.250000
vt 0.562500 0.250000
vt 0.562500 0.250000
vt 0.562500 0.250000
vt 0.562500 0.250000
vt 0.562500 0.250000
vt 0.562500 0.250000
vt 0.562500 0.250000
vt 0.562500 0.250000
vn 0.0000 1.0000 0.0000
vn 0.0000 -1.0000 0.0000
vn -0.7065 0.0000 0.7077
vn -0.7075 0.0000 0.7067
vn 0.7070 0.0000 -0.7072
usemtl texture
s off
f 1/1/1 2/2/1 3/3/1
f 2/2/1 4/4/1 3/3/1
f 5/5/2 6/6/2 7/7/2
f 6/6/2 8/8/2 7/7/2
f 9/9/3 10/10/3 11/11/3
f 10/10/4 12/12/4 11/11/4
f 13/13/5 14/14/5 15/15/5
f 14/14/5 16/16/5 15/15/5
o Object_5_Object_1
v -5.656147 15.000005 5.657564
v -5.656147 0.000002 5.657564
v 5.657561 15.000005 -5.656146
v 5.657561 0.000002 -5.656146
v 5.656854 15.000005 -5.656853
v 5.656854 0.000002 -5.656853
v -5.656854 15.000005 5.656857
v -5.656854 0.000002 5.656857
vt 0.000000 0.000000
vt 0.000000 1.000000
vt 1.000000 0.000000
vt 1.000000 1.000000
vt 1.000000 0.000000
vt 1.000000 1.000000
vt 0.000000 0.000000
vt 0.000000 1.000000
vn 0.7071 0.0000 0.7071
vn -0.7071 0.0000 -0.7071
usemtl texture_0
s off
f 17/17/6 18/18/6 19/19/6
f 18/18/6 20/20/6 19/19/6
f 21/21/7 22/22/7 23/23/7
f 22/22/7 24/24/7 23/23/7
o Object_7_Object_2
v 5.656854 15.000005 -5.656853
v -5.656854 15.000005 5.656857
v 5.657561 15.000005 -5.656146
v -5.656147 15.000005 5.657564
v -5.656854 0.000002 5.656857
v 5.656854 0.000002 -5.656853
v -5.656147 0.000002 5.657564
v 5.657561 0.000002 -5.656146
v -5.656854 15.000005 5.656857
v -5.656854 0.000002 5.656857
v -5.656147 15.000005 5.657564
v -5.656147 0.000002 5.657564
v 5.657561 15.000005 -5.656146
v 5.657561 0.000002 -5.656146
v 5.656854 15.000005 -5.656853
v 5.656854 0.000002 -5.656853
vt 0.562500 0.250000
vt 0.562500 0.250000
vt 0.562500 0.250000
vt 0.562500 0.250000
vt 0.562500 0.250000
vt 0.562500 0.250000
vt 0.562500 0.250000
vt 0.562500 0.250000
vt 0.562500 0.250000
vt 0.562500 0.250000
vt 0.562500 0.250000
vt 0.562500 0.250000
vt 0.562500 0.250000
vt 0.562500 0.250000
vt 0.562500 0.250000
vt 0.562500 0.250000
vn 0.0000 1.0000 0.0000
vn 0.0000 -1.0000 0.0000
vn -0.7065 0.0000 0.7077
vn -0.7075 0.0000 0.7067
vn 0.7070 0.0000 -0.7072
usemtl texture
s off
f 25/25/8 26/26/8 27/27/8
f 26/26/8 28/28/8 27/27/8
f 29/29/9 30/30/9 31/31/9
f 30/30/9 32/32/9 31/31/9
f 33/33/10 34/34/10 35/35/10
f 34/34/11 36/36/11 35/35/11
f 37/37/12 38/38/12 39/39/12
f 38/38/12 40/40/12 39/39/12
o Object_8_Object_3
v -5.656147 15.000005 5.657564
v -5.656147 0.000002 5.657564
v 5.657561 15.000005 -5.656146
v 5.657561 0.000002 -5.656146
v 5.656854 15.000005 -5.656853
v 5.656854 0.000002 -5.656853
v -5.656854 15.000005 5.656857
v -5.656854 0.000002 5.656857
vt 1.000000 0.000000
vt 1.000000 1.000000
vt 0.000000 0.000000
vt 0.000000 1.000000
vt 0.000000 0.000000
vt 0.000000 1.000000
vt 1.000000 0.000000
vt 1.000000 1.000000
vn 0.7071 0.0000 0.7071
vn -0.7071 0.0000 -0.7071
usemtl texture_1
s off
f 41/41/13 42/42/13 43/43/13
f 42/42/13 44/44/13 43/43/13
f 45/45/14 46/46/14 47/47/14
f 46/46/14 48/48/14 47/47/14
o Object_10_Object_4
v -5.656854 15.000005 -5.656853
v 5.656854 15.000005 5.656857
v -5.656147 15.000005 -5.657560
v 5.657561 15.000005 5.656150
v 5.656854 0.000002 5.656857
v -5.656854 0.000002 -5.656853
v 5.657561 0.000002 5.656150
v -5.656147 0.000002 -5.657560
v 5.656854 15.000005 5.656857
v 5.656854 0.000002 5.656857
v 5.657561 15.000005 5.656150
v 5.657561 0.000002 5.656150
v -5.656147 15.000005 -5.657560
v -5.656147 0.000002 -5.657560
v -5.656854 15.000005 -5.656853
v -5.656854 0.000002 -5.656853
vt 0.562500 0.250000
vt 0.562500 0.250000
vt 0.562500 0.250000
vt 0.562500 0.250000
vt 0.562500 0.250000
vt 0.562500 0.250000
vt 0.562500 0.250000
vt 0.562500 0.250000
vt 0.562500 0.250000
vt 0.562500 0.250000
vt 0.562500 0.250000
vt 0.562500 0.250000
vt 0.562500 0.250000
vt 0.562500 0.250000
vt 0.562500 0.250000
vt 0.562500 0.250000
vn 0.0000 1.0000 0.0019
vn 0.0000 1.0000 -0.0019
vn 0.0000 -1.0000 0.0000
vn 0.7070 0.0000 0.7072
vn 0.7075 0.0000 0.7067
vn -0.7070 0.0000 -0.7072
usemtl texture
s off
f 49/49/15 50/50/15 51/51/15
f 50/50/16 52/52/16 51/51/16
f 53/53/17 54/54/17 55/55/17
f 54/54/17 56/56/17 55/55/17
f 57/57/18 58/58/18 59/59/18
f 58/58/19 60/60/19 59/59/19
f 61/61/20 62/62/20 63/63/20
f 62/62/20 64/64/20 63/63/20
o Object_11_Object_5
v 5.657561 15.000005 5.656150
v 5.657561 0.000002 5.656150
v -5.656147 15.000005 -5.657560
v -5.656147 0.000002 -5.657560
v -5.656854 15.000005 -5.656853
v -5.656854 0.000002 -5.656853
v 5.656854 15.000005 5.656857
v 5.656854 0.000002 5.656857
vt 0.000000 0.000000
vt 0.000000 1.000000
vt 1.000000 0.000000
vt 1.000000 1.000000
vt 1.000000 0.000000
vt 1.000000 1.000000
vt 0.000000 0.000000
vt 0.000000 1.000000
vn 0.7071 0.0000 -0.7071
vn -0.7071 0.0000 0.7071
usemtl texture_0
s off
f 65/65/21 66/66/21 67/67/21
f 66/66/21 68/68/21 67/67/21
f 69/69/22 70/70/22 71/71/22
f 70/70/22 72/72/22 71/71/22
o Object_13_Object_6
v -5.656854 15.000005 -5.656853
v 5.656854 15.000005 5.656857
v -5.656147 15.000005 -5.657560
v 5.657561 15.000005 5.656150
v 5.656854 0.000002 5.656857
v -5.656854 0.000002 -5.656853
v 5.657561 0.000002 5.656150
v -5.656147 0.000002 -5.657560
v 5.656854 15.000005 5.656857
v 5.656854 0.000002 5.656857
v 5.657561 15.000005 5.656150
v 5.657561 0.000002 5.656150
v -5.656147 15.000005 -5.657560
v -5.656147 0.000002 -5.657560
v -5.656854 15.000005 -5.656853
v -5.656854 0.000002 -5.656853
vt 0.562500 0.250000
vt 0.562500 0.250000
vt 0.562500 0.250000
vt 0.562500 0.250000
vt 0.562500 0.250000
vt 0.562500 0.250000
vt 0.562500 0.250000
vt 0.562500 0.250000
vt 0.562500 0.250000
vt 0.562500 0.250000
vt 0.562500 0.250000
vt 0.562500 0.250000
vt 0.562500 0.250000
vt 0.562500 0.250000
vt 0.562500 0.250000
vt 0.562500 0.250000
vn 0.0000 1.0000 0.0019
vn 0.0000 1.0000 -0.0019
vn 0.0000 -1.0000 0.0000
vn 0.7070 0.0000 0.7072
vn 0.7075 0.0000 0.7067
vn -0.7070 0.0000 -0.7072
usemtl texture
s off
f 73/73/23 74/74/23 75/75/23
f 74/74/24 76/76/24 75/75/24
f 77/77/25 78/78/25 79/79/25
f 78/78/25 80/80/25 79/79/25
f 81/81/26 82/82/26 83/83/26
f 82/82/27 84/84/27 83/83/27
f 85/85/28 86/86/28 87/87/28
f 86/86/28 88/88/28 87/87/28
o Object_14_Object_7
v 5.657561 15.000005 5.656150
v 5.657561 0.000002 5.656150
v -5.656147 15.000005 -5.657560
v -5.656147 0.000002 -5.657560
v -5.656854 15.000005 -5.656853
v -5.656854 0.000002 -5.656853
v 5.656854 15.000005 5.656857
v 5.656854 0.000002 5.656857
vt 0.000000 0.000000
vt 0.000000 1.000000
vt 1.000000 0.000000
vt 1.000000 1.000000
vt 1.000000 0.000000
vt 1.000000 1.000000
vt 0.000000 0.000000
vt 0.000000 1.000000
vn 0.7071 0.0000 -0.7071
vn -0.7071 0.0000 0.7071
usemtl texture_1
s off
f 89/89/29 90/90/29 91/91/29
f 90/90/29 92/92/29 91/91/29
f 93/93/30 94/94/30 95/95/30
f 94/94/30 96/96/30 95/95/30
o Object_16_Object_8
v 5.000000 1.000002 5.000004
v 5.000000 -0.999998 5.000004
v 5.000000 1.000002 -4.999999
v 5.000000 -0.999998 -4.999999
v -5.000000 1.000002 -4.999999
v -5.000000 -0.999998 -4.999999
v -5.000000 1.000002 5.000004
v -5.000000 -0.999998 5.000004
v -5.000000 1.000002 -4.999999
v -5.000000 1.000002 5.000004
v 5.000000 1.000002 -4.999999
v 5.000000 1.000002 5.000004
v -5.000000 -0.999998 5.000004
v -5.000000 -0.999998 -4.999999
v 5.000000 -0.999998 5.000004
v 5.000000 -0.999998 -4.999999
v -5.000000 1.000002 5.000004
v -5.000000 -0.999998 5.000004
v 5.000000 1.000002 5.000004
v 5.000000 -0.999998 5.000004
v 5.000000 1.000002 -4.999999
v 5.000000 -0.999998 -4.999999
v -5.000000 1.000002 -4.999999
v -5.000000 -0.999998 -4.999999
vt 0.375000 0.000000
vt 0.375000 0.125000
vt 1.000000 0.000000
vt 1.000000 0.125000
vt 0.375000 0.000000
vt 0.375000 0.125000
vt 1.000000 0.000000
vt 1.000000 0.125000
vt 0.000000 0.375000
vt 0.000000 1.000000
vt 0.625000 0.375000
vt 0.625000 1.000000
vt 0.062500 0.000000
vt 0.062500 0.375000
vt 0.437500 0.000000
vt 0.437500 0.375000
vt 0.375000 0.000000
vt 0.375000 0.125000
vt 1.000000 0.000000
vt 1.000000 0.125000
vt 0.375000 0.000000
vt 0.375000 0.125000
vt 1.000000 0.000000
vt 1.000000 0.125000
vn 1.0000 0.0000 0.0000
vn -1.0000 0.0000 0.0000
vn 0.0000 1.0000 0.0000
vn 0.0000 -1.0000 0.0000
vn 0.0000 0.0000 1.0000
vn 0.0000 0.0000 -1.0000
usemtl texture
s off
f 97/97/31 98/98/31 99/99/31
f 98/98/31 100/100/31 99/99/31
f 101/101/32 102/102/32 103/103/32
f 102/102/32 104/104/32 103/103/32
f 105/105/33 106/106/33 107/107/33
f 106/106/33 108/108/33 107/107/33
f 109/109/34 110/110/34 111/111/34
f 110/110/34 112/112/34 111/111/34
f 113/113/35 114/114/35 115/115/35
f 114/114/35 116/116/35 115/115/35
f 117/117/36 118/118/36 119/119/36
f 118/118/36 120/120/36 119/119/36
o Object_18_Object_9
v 4.000000 -0.999999 4.000003
v 4.000000 -7.000000 4.000003
v 4.000000 -0.999999 -3.999998
v 4.000000 -7.000000 -3.999998
v -4.000000 -0.999999 -3.999998
v -4.000000 -7.000000 -3.999998
v -4.000000 -0.999999 4.000003
v -4.000000 -7.000000 4.000003
v -4.000000 -0.999999 -3.999998
v -4.000000 -0.999999 4.000003
v 4.000000 -0.999999 -3.999998
v 4.000000 -0.999999 4.000003
v -4.000000 -7.000000 4.000003
v -4.000000 -7.000000 -3.999998
v 4.000000 -7.000000 4.000003
v 4.000000 -7.000000 -3.999998
v -4.000000 -0.999999 4.000003
v -4.000000 -7.000000 4.000003
v 4.000000 -0.999999 4.000003
v 4.000000 -7.000000 4.000003
v 4.000000 -0.999999 -3.999998
v 4.000000 -7.000000 -3.999998
v -4.000000 -0.999999 -3.999998
v -4.000000 -7.000000 -3.999998
vt 0.000000 0.375000
vt 0.000000 0.000000
vt 0.500000 0.375000
vt 0.500000 0.000000
vt 0.000000 0.375000
vt 0.000000 0.000000
vt 0.500000 0.375000
vt 0.500000 0.000000
vt 0.187500 0.250000
vt 0.187500 0.312500
vt 0.250000 0.250000
vt 0.250000 0.312500
vt 0.062500 0.000000
vt 0.062500 0.375000
vt 0.437500 0.000000
vt 0.437500 0.375000
vt 0.000000 0.375000
vt 0.000000 0.000000
vt 0.500000 0.375000
vt 0.500000 0.000000
vt 0.000000 0.375000
vt 0.000000 0.000000
vt 0.500000 0.375000
vt 0.500000 0.000000
vn 1.0000 0.0000 0.0000
vn -1.0000 0.0000 0.0000
vn 0.0000 1.0000 0.0000
vn 0.0000 -1.0000 0.0000
vn 0.0000 0.0000 1.0000
vn 0.0000 0.0000 -1.0000
usemtl texture
s off
f 121/121/37 122/122/37 123/123/37
f 122/122/37 124/124/37 123/123/37
f 125/125/38 126/126/38 127/127/38
f 126/126/38 128/128/38 127/127/38
f 129/129/39 130/130/39 131/131/39
f 130/130/39 132/132/39 131/131/39
f 133/133/40 134/134/40 135/135/40
f 134/134/40 136/136/40 135/135/40
f 137/137/41 138/138/41 139/139/41
f 138/138/41 140/140/41 139/139/41
f 141/141/42 142/142/42 143/143/42
f 142/142/42 144/144/42 143/143/42
o Object_20_Object_10
v 3.000000 -7.000000 3.000003
v 3.000000 -8.000000 3.000003
v 3.000000 -7.000000 -2.999998
v 3.000000 -8.000000 -2.999998
v -3.000000 -7.000000 -2.999998
v -3.000000 -8.000000 -2.999998
v -3.000000 -7.000000 3.000003
v -3.000000 -8.000000 3.000003
v -3.000000 -7.000000 -2.999998
v -3.000000 -7.000000 3.000003
v 3.000000 -7.000000 -2.999998
v 3.000000 -7.000000 3.000003
v -3.000000 -8.000000 3.000003
v -3.000000 -8.000000 -2.999998
v 3.000000 -8.000000 3.000003
v 3.000000 -8.000000 -2.999998
v -3.000000 -7.000000 3.000003
v -3.000000 -8.000000 3.000003
v 3.000000 -7.000000 3.000003
v 3.000000 -8.000000 3.000003
v 3.000000 -7.000000 -2.999998
v 3.000000 -8.000000 -2.999998
v -3.000000 -7.000000 -2.999998
v -3.000000 -8.000000 -2.999998
vt 0.500000 0.125000
vt 0.500000 0.187500
vt 0.875000 0.125000
vt 0.875000 0.187500
vt 0.500000 0.125000
vt 0.500000 0.187500
vt 0.875000 0.125000
vt 0.875000 0.187500
vt 0.187500 0.250000
vt 0.187500 0.312500
vt 0.250000 0.250000
vt 0.250000 0.312500
vt 0.187500 0.250000
vt 0.187500 0.312500
vt 0.250000 0.250000
vt 0.250000 0.312500
vt 0.500000 0.125000
vt 0.500000 0.187500
vt 0.875000 0.125000
vt 0.875000 0.187500
vt 0.500000 0.125000
vt 0.500000 0.187500
vt 0.875000 0.125000
vt 0.875000 0.187500
vn 1.0000 0.0000 0.0000
vn -1.0000 0.0000 0.0000
vn 0.0000 1.0000 0.0000
vn 0.0000 -1.0000 0.0000
vn 0.0000 0.0000 1.0000
vn 0.0000 0.0000 -1.0000
usemtl texture
s off
f 145/145/43 146/146/43 147/147/43
f 146/146/43 148/148/43 147/147/43
f 149/149/44 150/150/44 151/151/44
f 150/150/44 152/152/44 151/151/44
f 153/153/45 154/154/45 155/155/45
f 154/154/45 156/156/45 155/155/45
f 157/157/46 158/158/46 159/159/46
f 158/158/46 160/160/46 159/159/46
f 161/161/47 162/162/47 163/163/47
f 162/162/47 164/164/47 163/163/47
f 165/165/48 166/166/48 167/167/48
f 166/166/48 168/168/48 167/167/48
